<svg width="27" height="12" viewBox="0 0 27 12" fill="none" xmlns="http://www.w3.org/2000/svg">
<path d="M1.31274 5.51221C0.898531 5.51221 0.562744 5.84799 0.562744 6.26221C0.562744 6.67642 0.898531 7.01221 1.31274 7.01221L1.31274 5.51221ZM26.1758 6.79254C26.4687 6.49965 26.4687 6.02477 26.1758 5.73188L21.4028 0.958908C21.1099 0.666014 20.635 0.666014 20.3421 0.958908C20.0492 1.2518 20.0492 1.72667 20.3421 2.01957L24.5848 6.26221L20.3421 10.5048C20.0492 10.7977 20.0492 11.2726 20.3421 11.5655C20.635 11.8584 21.1099 11.8584 21.4028 11.5655L26.1758 6.79254ZM1.31274 7.01221L25.6454 7.01221L25.6454 5.51221L1.31274 5.51221L1.31274 7.01221Z" fill="#8793AB"/>
</svg>
