<svg width="671" height="444" viewBox="0 0 671 444" fill="none" xmlns="http://www.w3.org/2000/svg">
<path d="M116.587 19.8297C117.321 19.5842 118.234 18.8775 119.147 18.1707C118.037 17.7396 116.928 17.3084 115.818 16.8773C116.731 16.1706 117.465 15.925 117.824 15.0027C119.847 14.7271 121.153 16.2961 122.979 14.8827C123.337 13.9604 121.494 13.7748 121.118 13.0981C120.742 12.4214 120.922 11.9602 120.725 10.8223C122.014 10.7923 122.748 10.5467 123.858 10.9779C125.522 11.6246 126.256 11.379 127.545 11.349C130.123 11.289 132.325 10.5523 135.636 10.2467C135.261 9.57 135.619 8.64766 135.243 7.97093C136.532 7.94093 137.821 7.91092 138.555 7.66534C139.11 7.88092 139.289 7.41979 139.844 7.63537C142.439 9.17438 144.265 7.76091 145.912 6.80861C146.646 6.56303 146.826 6.10182 147.38 6.3174C151.247 6.22739 154.218 8.44317 157.726 9.27546C158.281 9.49103 158.656 10.1677 159.211 10.3833C161.627 12.3835 164.026 12.7847 166.782 12.2635C169.539 11.7423 172.672 11.8979 175.446 12.9758C177.11 13.6225 178.954 13.808 180.601 12.8557C181.156 13.0713 181.711 13.2868 182.641 14.1791C185.023 12.9813 187.404 11.7834 190.912 12.6157C192.756 12.8012 194.044 12.7712 195.709 13.4179C199.217 14.2502 202.529 13.9447 205.841 13.6391C210.441 13.3035 215.597 13.1835 220.018 13.309C223.15 13.4646 225.907 12.9434 229.219 12.6378C232.531 12.3322 236.397 12.2422 239.905 13.0745C239.368 14.458 237.524 14.2724 236.79 14.5179C233.478 14.8235 229.612 14.9136 225.745 15.0036C223.902 14.818 222.434 15.3092 220.966 15.8003C218.209 16.3215 215.631 16.3815 212.499 16.226C208.077 16.1004 203.298 16.8971 199.252 17.4483C198.697 17.2327 198.518 17.6939 198.518 17.6939C198.159 18.6162 198.714 18.8318 199.269 19.0474C200.934 19.6941 202.598 20.3408 203.887 20.3108C203.887 20.3108 203.887 20.3108 204.442 20.5264C207.771 21.8198 210.707 20.8375 213.285 20.7775C217.706 20.903 222.306 20.5674 226.531 19.5551C227.265 19.3095 227.82 19.5251 228.375 19.7407C232.617 20.3274 236.466 18.6384 240.512 18.0872C241.98 17.596 243.448 17.1048 245.471 16.8292C247.494 16.5537 249.141 15.6014 249.858 13.7568C250.412 13.9723 250.967 14.1879 251.522 14.4035C252.077 14.6191 252.811 14.3735 253.169 13.4512C253.528 12.5289 252.973 12.3133 251.863 11.8822C252.597 11.6366 252.777 11.1755 253.331 11.391C256.643 11.0854 260.313 9.8575 264 10.2286C267.133 10.3842 269.335 9.64751 272.288 10.2642C272.843 10.4798 273.022 10.0186 273.022 10.0186C275.224 9.28191 277.247 9.00628 280.021 10.0841C282.206 7.74838 285.356 9.503 287.934 9.44298C288.309 10.1197 287.575 10.3653 287.575 10.3653C287.575 10.3653 287.575 10.3653 287.02 10.1497C284.281 12.2699 280.414 12.3599 276.548 12.4499C275.814 12.6955 275.08 12.9411 274.346 13.1867C273.057 13.2167 272.144 13.9234 271.034 13.4923C269.745 13.5223 268.277 14.0134 267.543 14.259C266.809 14.5046 265.341 14.9957 264.804 16.3792C265.358 16.5947 265.179 17.0559 265.734 17.2715C267.953 18.1338 270.531 18.0738 272.554 17.7982C276.224 16.5703 280.09 16.4803 284.136 15.9291C286.893 15.4079 289.471 15.348 292.048 15.2879L291.869 15.7491C291.869 15.7491 292.424 15.9647 292.979 16.1803C292.979 16.1803 292.979 16.1803 293.158 15.7191L292.783 15.0424L292.228 14.8268C292.962 14.5812 293.141 14.1201 293.696 14.3356C296.094 14.7368 298.296 14.0001 299.943 13.0477C301.591 12.0954 303.059 11.6043 304.348 11.5743C305.636 11.5443 307.104 11.0531 308.572 10.5619C308.572 10.5619 308.751 10.1008 309.485 9.85519C308.931 9.63962 308.376 9.42407 307.821 9.2085C305.243 9.2685 302.845 8.86734 300.822 9.14293C300.088 9.38851 298.799 9.41854 298.065 9.66412C295.863 10.4009 293.285 10.4608 290.887 10.0597L290.332 9.84412C291.424 8.67623 293.644 9.53855 294.736 8.37067C295.47 8.12509 296.204 7.87954 296.204 7.87954C296.187 6.28051 297.476 6.25048 298.764 6.22046C301.718 6.83719 303.92 6.10047 306.677 5.57931C307.411 5.33373 308.7 5.30371 309.254 5.51929C309.809 5.73486 310.543 5.48924 310.722 5.02809C313.104 3.83019 315.86 3.30907 318.993 3.46463C320.282 3.43463 321.75 2.94347 323.039 2.91347C323.773 2.66789 324.148 3.3446 324.703 3.56016C325.258 3.77573 326.547 3.74573 327.102 3.9613C325.634 4.45245 324.72 5.15918 323.432 5.18918C324.004 7.00379 324.38 7.68057 325.114 7.43499C326.957 7.62055 328.425 7.12938 330.448 6.85379C331.737 6.82379 332.65 6.11707 334.315 6.76379C334.315 6.76379 334.869 6.97937 335.049 6.51822C337.251 5.78149 339.453 5.04475 342.03 4.98474C343.857 3.57127 345.521 4.218 347.741 5.08029C348.833 3.91241 347.544 3.94237 347.168 3.26565C349.191 2.99006 350.659 2.49894 352.503 2.68452C353.792 2.65451 355.081 2.62446 356.011 3.51675C356.566 3.73233 357.121 3.94795 357.855 3.70238C358.768 2.99564 360.612 3.1812 361.525 2.47447C362.259 2.22889 362.993 1.9833 363.923 2.87559C363.189 3.12117 363.189 3.12115 362.455 3.36673C360.808 4.31903 361.005 5.45695 362.311 7.02597C364.513 6.28924 367.09 6.22921 369.292 5.49248C372.229 4.51017 374.627 4.9113 377.777 6.66589C378.707 7.55819 379.996 7.52819 380.909 6.82145C381.089 6.3603 381.268 5.89916 381.447 5.438C380.892 5.22243 380.337 5.00689 380.337 5.00689L380.516 4.54574C381.25 4.30016 381.984 4.05456 382.539 4.27014C383.828 4.24013 384.562 3.99454 385.851 3.96454C387.319 3.47338 389.342 3.19777 391.185 3.38335C393.029 3.56891 394.318 3.53895 396.162 3.72451C398.005 3.91009 399.098 2.74221 400.566 2.25106C401.855 2.22106 403.323 1.72985 404.432 2.16099C406.831 2.56214 409.033 1.82544 410.68 0.873141C412.183 3.58005 412.737 3.79559 415.119 2.5977C415.298 2.13655 415.853 2.35214 415.853 2.35214C415.853 2.35214 415.674 2.8133 416.228 3.02888L416.962 2.78324C418.43 2.29209 419.719 2.26209 421.187 1.77093C423.21 1.49535 424.874 2.14207 426.539 2.78878C427.094 3.00436 427.47 3.6811 427.29 4.14225C427.666 4.81898 427.862 5.95683 428.059 7.09471C427.146 7.80144 426.787 8.72378 425.874 9.43051C425.695 9.89166 425.892 11.0295 427.18 10.9995C427.735 11.2151 427.735 11.2151 428.469 10.9695C430.492 10.6939 432.515 10.4183 433.983 9.92718C435.63 8.97487 437.474 9.16048 438.959 10.2684C441.716 9.74719 443.918 9.01042 446.871 9.62713C449.807 8.64482 453.495 9.01594 456.61 7.57247C456.431 8.03362 456.806 8.71036 456.627 9.17152C457.003 9.84824 457.558 10.0638 458.488 10.9561C460.332 11.1417 462.355 10.8661 464.199 11.0517C464.574 11.7284 464.395 12.1895 464.771 12.8663C465.146 13.543 466.077 14.4353 466.811 14.1897C468.1 14.1597 469.013 13.453 469.943 14.3453C467.562 15.5432 464.805 16.0644 461.852 15.4476C458.899 14.8309 456.142 15.352 453.564 15.412C452.83 15.6576 451.541 15.6877 451.362 16.1488C450.09 17.7778 448.802 17.8078 446.958 17.6223C444.38 17.6823 441.623 18.2035 439.994 20.7548C439.635 21.6771 440.011 22.3538 441.12 22.7849C442.785 23.4317 444.074 23.4017 445.738 24.0484C446.472 23.8028 447.386 23.0961 448.12 22.8505C450.68 21.1915 453.812 21.347 457.141 22.6405C457.696 22.856 458.806 23.2872 459.54 23.0416C460.274 22.7961 460.453 22.3349 461.366 21.6281C461.545 21.167 461.545 21.167 461.725 20.7058C462.279 20.9214 462.28 20.9214 462.834 21.137C464.695 22.9216 466.718 22.646 468.92 21.9093C469.654 21.6637 469.833 21.2025 470.567 20.9569C471.301 20.7114 471.481 20.2502 472.035 20.4658C475.723 20.837 477.532 17.8245 480.289 17.3033L480.647 16.381C480.647 16.381 479.717 15.4887 479.537 15.9498C478.249 15.9798 476.96 16.0099 476.046 16.7166C475.312 16.9622 474.579 17.2078 473.845 17.4533C473.093 16.0999 472.163 15.2076 471.966 14.0697C474.723 13.5486 477.856 13.7041 480.237 12.5062C480.971 12.2606 481.526 12.4762 482.815 12.4462C484.837 12.1706 486.86 11.8951 488.704 12.0806C489.993 12.0506 490.906 11.3439 492.391 12.4518L493.68 12.4217C494.593 11.715 495.686 10.5471 496.599 9.84042C497.333 9.59484 498.442 10.026 499.176 9.78041C500.644 9.28925 501.003 8.36692 501.916 7.66019C503.026 8.09134 504.314 8.06132 505.048 7.81574C504.69 8.73805 504.887 9.87593 503.973 10.5827C502.702 12.2117 503.274 14.0263 504.222 16.5176C504.794 18.3322 505.545 19.6857 506.117 21.5003C507.227 21.9314 508.337 22.3626 509.25 21.6558C510.897 20.7035 512.544 19.7512 514.746 19.0145C516.411 19.6612 515.694 21.5058 516.625 22.3981C517.734 22.8293 518.844 23.2604 520.508 23.9071C520.347 25.9673 520.919 27.7819 518.538 28.9798C517.804 29.2254 518.179 29.9021 517.445 30.1477C518.751 31.7167 520.595 31.9023 521.705 32.3334C522.08 33.0101 522.456 33.6868 522.832 34.3636C523.045 37.1005 525.82 38.1784 528.218 38.5795C530.062 38.7651 532.281 39.6274 533.946 40.2741C535.055 40.7052 536.899 40.8908 537.633 40.6452C539.835 39.9085 541.858 39.6329 543.13 38.0039C544.222 36.836 546.979 36.3148 548.447 35.8237C551.776 37.1171 551.435 39.6384 553.296 41.423C552.007 41.453 550.539 41.9442 549.805 42.1898C549.446 43.1121 549.643 44.2499 547.62 44.5255C546.886 44.7711 546.707 45.2322 546.903 46.3701C547.1 47.508 547.655 47.7236 548.764 48.1548C549.874 48.5859 550.608 48.3403 551.718 48.7715C554.116 49.1726 555.584 48.6814 557.231 47.7291C558.145 47.0224 558.879 46.7768 559.613 46.5312C561.081 46.0401 561.439 45.1178 563.086 44.1655C564.375 44.1355 565.485 44.5666 567.328 44.7522C568.045 42.9076 570.247 42.1709 572.646 42.572C573.755 43.0032 574.489 42.7576 575.778 42.7276C578.911 42.8831 579.645 42.6375 581.275 40.0862C580.523 38.7327 579.593 37.8405 578.287 36.2714C579.379 35.1036 579.916 33.7201 580.83 33.0133C580.078 31.6599 579.148 30.7676 578.217 29.8753C577.287 28.983 575.802 27.8752 574.871 26.9829C573.386 25.875 572.276 25.4438 570.236 24.1204C569.86 23.4437 569.484 22.7669 568.93 22.5513C568.554 21.8746 567.999 21.6591 567.624 20.9823C567.982 20.06 568.34 19.1377 568.144 17.9998C570.542 18.401 572.762 19.2633 573.889 21.2935C573.889 21.2935 574.264 21.9702 574.819 22.1858C576.663 22.3714 577.414 23.7248 578.165 25.0782C578.541 25.755 579.651 26.1861 580.026 26.8628C581.691 27.5095 583.176 28.6174 584.841 29.2642C585.396 29.4797 585.95 29.6953 586.505 29.9109C588.349 30.0964 589.834 31.2043 591.499 31.851C592.608 32.2822 592.984 32.9589 593.735 34.3123C593.377 35.2346 592.464 35.9413 592.285 36.4025C592.105 36.8636 593.036 37.756 593.412 38.4327C593.233 38.8939 592.678 38.6783 592.498 39.1394C591.03 39.6306 590.296 39.8761 590.869 41.6908C591.065 42.8286 591.262 43.9665 590.903 44.8888C590.187 46.7334 589.094 47.9013 588.377 49.7459C588.753 50.4227 590.238 51.5305 589.701 52.914C589.522 53.3751 589.897 54.0519 590.452 54.2674C591.938 55.3753 592.689 56.7288 592.885 57.8667C593.261 58.5434 593.637 59.2201 594.371 58.9745C595.48 59.4056 595.839 58.4834 596.018 58.0222C596.197 57.5611 596.555 56.6387 596.18 55.962C596.359 55.5009 596.538 55.0397 596.342 53.9018C599.474 54.0574 600.78 55.6264 602.641 57.411C603.572 58.3033 603.768 59.4412 604.52 60.7947C603.982 62.1781 603.982 62.1781 605.485 64.885C609.351 64.795 613.218 64.7049 617.263 64.1538C617.818 64.3693 618.749 65.2616 619.304 65.4772C621.344 66.8006 622.078 66.5551 623.725 65.6028C623.904 65.1416 624.638 64.8961 624.817 64.4349C626.482 65.0816 628.701 65.9439 630.707 64.0693C630.903 65.2072 630.724 65.6683 630.724 65.6683C629.453 67.2974 628.557 69.6031 626.175 70.801C625.442 71.0466 625.262 71.5078 625.083 71.9689C623.078 73.8435 622.361 75.6881 622.575 78.425C622.216 79.3473 623.147 80.2396 623.343 81.3775C621.893 83.4677 620.066 84.8811 617.685 86.079C616.038 87.0313 614.211 88.4448 613.119 89.6127C611.847 91.2417 610.755 92.4096 608.553 93.1463C607.819 93.3919 606.906 94.0987 606.548 95.021C605.276 96.65 606.224 99.1413 605.507 100.986C605.149 101.908 605.9 103.262 607.206 104.831L607.582 105.507C607.241 108.029 605.969 109.658 604.519 111.748C604.16 112.67 602.692 113.161 601.403 113.191C600.115 113.221 598.826 113.251 596.803 113.527C593.491 113.833 591.11 115.03 590.035 117.797C589.856 118.259 589.856 118.259 589.677 118.72C589.677 118.72 589.677 118.72 589.497 119.181C590.428 120.073 591.179 121.427 592.11 122.319C590.463 123.271 588.995 123.762 588.081 124.469C587.544 125.853 589.208 126.499 589.405 127.637C589.226 128.098 588.671 127.883 588.492 128.344L588.671 127.883C587.937 128.128 586.827 127.697 586.272 127.482C585.718 127.266 585.718 127.266 585.163 127.05C584.984 127.512 584.984 127.512 584.804 127.973C583.712 129.141 582.227 128.033 581.134 129.201C580.955 129.662 580.597 130.584 581.527 131.476C583.013 132.584 584.302 132.554 586.145 132.74C586.879 132.494 586.879 132.494 587.613 132.249C589.439 130.835 591.821 129.637 593.468 128.685C595.115 127.733 597.138 127.457 599.161 127.182C600.45 127.152 601.559 127.583 602.49 128.475C603.045 128.691 603.224 128.229 603.779 128.445L604.154 129.122C602.704 131.212 603.831 133.242 603.669 135.302C602.935 135.548 602.935 135.548 602.201 135.793C600.912 135.823 601.108 136.961 600.75 137.884C599.461 137.914 598.351 137.482 597.259 138.65C597.259 138.65 596.704 138.435 596.525 138.896C596.525 138.896 596.525 138.896 597.08 139.111C597.08 139.111 597.259 138.65 597.814 138.866C598.369 139.081 598.745 139.758 599.299 139.974C598.565 140.219 597.831 140.465 597.097 140.71C596.363 140.956 596.184 141.417 595.826 142.34C595.467 143.262 594.93 144.645 593.086 144.46C592.352 144.705 591.618 144.951 591.439 145.412C591.635 146.55 591.832 147.688 592.583 149.041C592.583 149.041 592.028 148.826 591.849 149.287L592.028 148.826C592.583 149.041 592.583 149.041 592.959 149.718C593.335 150.395 593.889 150.61 594.803 149.904C594.803 149.904 595.358 150.119 595.537 149.658C595.358 150.119 594.444 150.826 594.265 151.287C593.531 151.533 592.797 151.778 592.618 152.239C593.011 154.515 593.011 154.515 591.364 155.467C590.45 156.174 589.913 157.558 588.624 157.588C587.89 157.833 588.462 159.648 589.196 159.402C590.485 159.372 591.97 160.48 592.346 161.157C592.167 161.618 591.809 162.54 591.629 163.001C591.075 162.786 591.075 162.786 590.52 162.57C589.589 161.678 588.659 160.786 587.012 161.738C586.832 162.199 587.387 162.415 587.029 163.337C585.74 163.367 584.451 163.397 582.608 163.211C582.07 164.595 583 165.487 583.376 166.164C583.197 166.625 582.839 167.547 582.659 168.008C582.48 168.47 581.926 168.254 581.926 168.254C579.903 168.53 578.631 170.159 577.914 172.003C577.556 172.926 579.041 174.033 579.775 173.788C581.977 173.051 584.752 174.129 587.15 174.53C588.439 174.5 589.335 172.194 592.109 173.272C591.392 175.117 590.3 176.285 587.722 176.345C587.56 178.405 591.427 178.315 590.71 180.159C588.866 179.974 587.202 179.327 586.451 177.974C586.075 177.297 584.965 176.866 584.607 177.788C584.983 178.465 585.358 179.142 585.555 180.28C585.93 180.956 585.751 181.417 586.306 181.633C589.08 182.711 589.849 185.663 592.444 187.202C592.999 187.418 593.195 188.556 592.461 188.801C591.172 188.831 590.438 189.077 589.346 190.245C589.167 190.706 588.254 191.413 587.52 191.658C590.311 194.335 592.548 196.797 595.877 198.09C596.432 198.306 596.986 198.521 597.72 198.276C599.743 198 602.321 197.94 604.165 198.125C604.899 197.88 605.453 198.095 606.187 197.85C608.389 197.113 610.054 197.76 611.181 199.79C611.557 200.467 612.308 201.82 613.059 203.174C612.88 203.635 612.522 204.557 611.609 205.264C611.984 205.941 612.539 206.156 612.915 206.833C618.232 204.653 623.728 202.011 629.601 200.047C630.352 201.4 631.103 202.754 631.855 204.107C633.323 203.616 635.345 203.34 636.079 203.095C636.634 203.31 636.634 203.31 637.189 203.526C637.94 204.879 638.316 205.556 639.067 206.91C639.819 208.263 641.287 207.772 642.038 209.125C642.414 209.802 644.257 209.988 645.188 210.88C645.384 212.018 644.471 212.725 643.934 214.108C643.575 215.03 642.662 215.737 642.304 216.659C641.587 218.504 640.495 219.672 638.293 220.409C635.195 223.451 630.97 224.463 627.121 226.152C626.387 226.398 625.653 226.644 625.294 227.566C624.578 229.41 623.485 230.578 621.283 231.315C621.283 231.315 621.104 231.776 620.549 231.561C618.902 232.513 618.919 234.112 620.405 235.22C620.959 235.435 621.335 236.112 621.89 236.328C621.711 236.789 621.156 236.573 620.977 237.034C620.994 238.633 620.457 240.017 619.543 240.724C620.116 242.538 621.243 244.568 621.815 246.383C623.479 247.03 625.144 247.676 627.005 249.461C626.826 249.922 626.646 250.383 625.912 250.629C625.178 250.874 623.71 251.366 622.976 251.611C621.508 252.102 620.595 252.809 620.237 253.731C620.612 254.408 620.988 255.085 621.918 255.977C621.005 256.684 620.271 256.929 620.092 257.391C619.734 258.313 621.416 260.559 622.525 260.99C623.08 261.205 623.635 261.421 623.814 260.96C625.461 260.008 627.681 260.87 629.166 261.978C630.096 262.87 631.761 263.517 632.691 264.409C633.425 264.163 634.714 264.133 635.448 263.888C636.934 264.996 637.13 266.134 637.506 266.81C637.147 267.733 636.038 267.301 635.304 267.547C633.102 268.284 631.455 269.236 628.68 268.158C628.126 267.943 627.391 268.188 626.657 268.434C625.189 268.925 623.901 268.955 622.433 269.446C621.699 269.692 620.785 270.398 620.051 270.644C619.514 272.027 621.912 272.429 620.265 273.381C620.82 273.596 620.641 274.058 621.196 274.273C622.86 274.92 624.704 275.106 626.172 274.614C629.484 274.309 632.241 273.788 635.749 274.62C639.257 275.452 642.569 275.147 646.059 274.38C647.348 274.35 648.637 274.32 649.926 274.29C651.77 274.475 652.879 274.907 654.723 275.092C656.012 275.062 656.567 275.278 657.676 275.709C657.497 276.17 656.763 276.416 657.318 276.631C658.445 278.661 658.104 281.183 660.52 283.183C662.184 283.83 663.849 284.476 664.941 283.308C666.033 282.14 666.392 281.218 664.889 278.511C666.178 278.481 666.912 278.236 667.663 279.589C668.039 280.266 668.415 280.943 668.97 281.158C669.345 281.835 669.721 282.512 670.096 283.188C669.738 284.111 669.38 285.033 669.021 285.955C668.663 286.878 668.305 287.8 669.056 289.153C669.432 289.83 669.252 290.291 669.628 290.968C670.021 293.244 669.859 295.304 668.963 297.61C667.154 300.622 665.345 303.635 663.161 305.97C660.797 308.767 659.167 311.319 657.358 314.331C656.265 315.499 655.173 316.667 654.081 317.835C651.341 319.955 649.156 322.291 646.417 324.411C644.232 326.747 640.938 328.651 638.932 330.526C635.28 333.353 630.875 334.826 626.847 336.976C624.287 338.635 621.172 340.079 619.166 341.954C616.426 344.074 612.756 345.302 609.641 346.745C605.971 347.973 603.411 349.632 600.671 351.752C600.492 352.213 599.937 351.998 599.758 352.459C598.128 355.01 598.128 355.01 595.747 356.208C595.568 356.669 595.943 357.346 595.943 357.346C596.14 358.484 595.781 359.406 594.313 359.897C592.845 360.388 591.198 361.341 590.106 362.509C589.193 363.215 589.014 363.677 589.21 364.814C589.407 365.952 588.493 366.659 587.759 366.905C586.291 367.396 585.378 368.103 583.91 368.594C580.974 369.576 577.483 370.343 574.351 370.187C573.796 369.972 573.617 370.433 573.062 370.217C570.663 369.816 568.461 370.553 566.439 370.828C564.237 371.565 561.659 371.625 559.457 372.362C555.966 373.129 552.654 373.434 550.094 375.093C546.961 374.938 545.135 376.351 542.378 376.872C539.621 377.393 537.419 378.13 535.217 378.867C531.547 380.095 527.877 381.323 524.207 382.551C521.271 383.533 517.78 384.3 514.665 385.743C513.752 386.45 512.087 385.803 510.995 386.971C510.082 387.678 508.614 388.169 507.146 388.66C505.678 389.151 504.764 389.858 503.296 390.349C502.562 390.595 501.829 390.84 501.095 391.086C497.604 391.853 495.043 393.512 492.107 394.494C486.252 398.058 478.895 398.914 472.468 400.663C468.243 401.676 464.018 402.688 459.794 403.7C458.701 404.868 456.482 404.006 454.835 404.958C453.742 406.126 451.344 405.725 449.876 406.216C448.408 406.707 446.385 406.983 444.917 407.474C443.449 407.965 441.981 408.456 441.068 409.163C438.507 410.822 435.571 411.804 432.814 412.326C428.59 413.338 424.919 414.566 420.874 415.117C420.157 416.962 419.065 418.129 417.042 418.405C412.817 419.417 408.413 420.891 404.188 421.903C403.633 421.688 403.454 422.149 402.899 421.933C398.674 422.946 393.895 423.742 389.67 424.755C386.179 425.521 382.688 426.288 379.376 426.594C378.267 426.163 377.908 427.085 377.174 427.33C376.799 426.654 376.799 426.654 376.065 426.899C375.886 427.36 375.886 427.36 375.706 427.822C370.747 429.079 365.968 429.876 360.454 430.918C354.206 432.206 348.334 434.171 341.711 434.782C340.422 434.812 338.775 435.765 337.307 436.256C335.839 436.747 335.105 436.992 333.816 437.022C332.348 437.514 330.504 437.328 328.481 437.604C324.256 438.616 319.656 438.951 314.876 439.748C310.831 440.299 306.606 441.312 302.56 441.863C299.803 442.384 297.046 442.905 293.914 442.75C292.625 442.78 290.781 442.594 289.492 442.624C288.758 442.87 287.649 442.439 287.469 442.9C286.377 444.068 285.267 443.636 283.979 443.666C281.401 443.726 281.401 443.726 281.187 440.99C282.1 440.283 283.389 440.253 284.302 439.546C285.95 438.594 287.793 438.779 290.013 439.642C290.567 439.857 291.677 440.288 292.411 440.043C295.902 439.276 298.659 438.755 301.595 437.773C301.595 437.773 301.595 437.772 302.329 437.527C302.687 436.605 302.866 436.144 302.67 435.006C302.115 434.79 302.115 434.79 301.56 434.574C296.405 434.694 291.804 435.03 286.649 435.15C283.337 435.456 280.384 434.839 277.072 435.145C274.495 435.205 271.917 435.265 269.339 435.325C268.05 435.355 267.495 435.139 266.207 435.169C266.386 434.708 266.386 434.708 266.565 434.247C266.744 433.786 266.923 433.324 266.368 433.109C265.993 432.432 265.438 432.217 264.883 432.001C264.328 431.785 263.594 432.031 263.039 431.815C259.907 431.66 257.329 431.72 254.359 429.504C254.179 429.965 253.266 430.672 253.087 431.133C248.666 431.008 244.244 430.882 239.089 431.002C238.355 431.248 237.245 430.816 236.136 430.385C235.026 429.954 234.65 429.277 233.541 428.846C232.986 428.631 231.697 428.661 230.587 428.23C231.321 427.984 231.501 427.523 231.68 427.062C232.593 426.355 233.327 426.109 233.13 424.972C232.755 424.295 233.113 423.373 233.847 423.127C236.049 422.39 235.853 421.252 235.835 419.653C236.014 419.192 236.194 418.731 235.818 418.054C235.067 416.701 233.402 416.054 231.917 414.946C231.362 414.731 230.807 414.515 230.073 414.761C228.23 414.575 226.941 414.605 225.473 415.096C224.918 414.881 223.629 414.911 223.074 414.695C221.964 414.264 221.964 414.264 221.572 411.988C223.774 411.252 225.421 410.299 225.028 408.023C224.635 405.748 224.242 403.472 220.734 402.64C222.756 402.364 223.49 402.118 224.404 401.412C226.051 400.459 226.034 398.86 224.369 398.214C222.705 397.567 220.485 396.705 218.462 396.98C216.619 396.795 215.151 397.286 213.128 397.561C212.573 397.346 212.018 397.13 211.088 396.238C211.267 395.777 210.712 395.561 210.712 395.561C211.983 393.932 212.521 392.549 213.793 390.92C211.752 389.596 211.18 387.782 211.342 385.721C211.521 385.26 211.88 384.338 212.434 384.554C213.903 384.062 214.44 382.679 214.978 381.296C214.602 380.619 214.226 379.942 213.851 379.265C208.499 378.247 203.522 377.906 198.367 378.026C197.078 378.056 195.056 378.332 193.767 378.362C193.391 377.685 193.57 377.224 194.125 377.44C195.414 377.41 196.148 377.164 197.437 377.134C199.46 376.859 200.928 376.367 201.465 374.984C201.089 374.307 200.893 373.169 200.517 372.493C200.696 372.031 201.055 371.109 201.789 370.864C203.257 370.372 203.615 369.45 203.419 368.312C203.598 367.851 203.777 367.39 203.956 366.929C205.245 366.899 206.713 366.408 207.447 366.162C208.736 366.132 209.649 365.425 210.007 364.503C210.366 363.581 209.99 362.904 209.239 361.551C207.395 361.365 205.551 361.179 204.459 362.347C203.367 363.515 201.344 363.791 199.679 363.144C197.46 362.282 195.813 363.234 194.72 364.402C193.432 364.432 192.877 364.216 191.588 364.246C190.478 363.815 189.744 364.061 188.276 364.552C186.808 365.043 185.519 365.073 183.676 364.887C179.075 365.223 174.654 365.098 170.053 365.433C168.765 365.463 167.851 366.17 166.563 366.2C165.274 366.23 164.36 366.937 163.43 366.044C162.875 365.829 162.141 366.074 162.141 366.074C159.581 367.733 155.893 367.362 153.137 367.883C148.357 368.68 143.756 369.016 139.156 369.351C137.867 369.381 136.399 369.873 134.931 370.364C134.197 370.609 132.729 371.1 131.995 371.346C131.261 371.592 130.706 371.376 130.348 372.298C130.168 372.759 129.435 373.005 128.88 372.789C127.036 372.604 124.637 372.203 122.239 371.802C119.84 371.4 117.997 371.215 115.974 371.49C114.685 371.52 113.217 372.012 111.552 371.365C111.732 370.904 111.911 370.443 112.824 369.736C109.853 367.52 107.437 365.52 103.392 366.071C103.016 365.394 102.086 364.502 101.71 363.825C100.6 363.394 99.3115 363.424 98.5775 363.67C97.8435 363.915 96.7339 363.484 96.3582 362.807C95.4277 361.915 94.8729 361.7 93.584 361.73C91.7403 361.544 90.4516 361.574 88.9662 360.466C88.2149 359.113 88.5732 358.19 89.4864 357.484C90.7579 355.855 91.2954 354.471 90.9025 352.195C90.706 351.058 91.0643 350.135 92.1567 348.967C94.1622 347.093 93.7866 346.416 92.1048 344.17C91.7292 343.494 90.7985 342.601 90.0645 342.847C88.9549 342.416 87.666 342.446 86.932 342.691C86.3772 342.476 85.6432 342.721 84.9092 342.967C81.0427 343.057 80.8462 341.919 80.2741 340.104C79.8984 339.428 79.8984 339.428 79.5227 338.751C76.5521 336.535 73.7779 335.457 70.287 336.224C69.553 336.47 68.9982 336.254 68.4434 336.039C66.224 335.176 64.3803 334.991 61.9818 334.59C58.8493 334.434 56.63 333.572 55.1274 330.865C54.1969 329.973 53.8212 329.296 52.1567 328.649C51.047 328.218 50.8505 327.08 51.7637 326.373C52.856 325.205 54.5032 324.253 55.9712 323.762C56.8844 323.055 57.2428 322.133 57.0463 320.995C56.8498 319.857 57.2083 318.935 57.5666 318.013C57.7285 315.952 56.9771 314.599 54.7578 313.737C52.5384 312.874 50.6947 312.689 48.4754 311.826C47.3657 311.395 46.8109 311.18 45.7012 310.749C44.2159 309.641 41.9965 308.778 40.332 308.132C39.7772 307.916 38.6675 307.485 37.737 306.593C36.0552 304.347 34.015 303.023 33.0672 300.532C32.3159 299.179 31.5647 297.825 29.9002 297.179C29.3454 296.963 28.9696 296.286 28.5939 295.61C28.3801 292.873 29.6517 291.244 31.8538 290.507C32.7669 289.8 33.6801 289.093 34.5932 288.387C35.5064 287.68 36.9744 287.189 38.2633 287.159C39.7313 286.668 40.6446 285.961 41.9161 284.332C38.5871 283.038 35.6164 280.823 31.9464 282.051C30.8367 281.619 30.4611 280.943 29.9063 280.727C30.2646 279.805 30.4438 279.344 30.6229 278.883C31.1605 277.499 32.2528 276.331 32.2355 274.732C32.2182 273.133 33.1314 272.426 34.2238 271.259C38.4313 268.647 43.0144 266.713 47.222 264.101C48.1352 263.394 49.9789 263.58 50.892 262.873C52.3601 262.382 52.7185 261.46 51.2332 260.352C50.8576 259.675 49.7478 259.244 49.1929 259.029C45.1472 259.58 42.6041 262.838 38.1828 262.712C37.9863 261.574 37.235 260.221 37.0385 259.083C36.3045 259.329 35.7498 259.113 35.0158 259.359C32.0797 260.341 29.6985 261.539 26.9416 262.06C25.4736 262.551 24.5604 263.258 24.5777 264.857C24.2193 265.779 24.0401 266.24 23.6818 267.163C23.5026 267.624 23.3235 268.085 23.6991 268.762C23.8956 269.9 23.1616 270.145 22.2484 270.852C21.5144 271.097 20.4047 270.666 20.0291 269.99C19.2778 268.636 18.3472 267.744 17.5959 266.39C18.8675 264.761 18.2953 262.947 20.1217 261.533C20.3009 261.072 20.6592 260.15 20.2835 259.473C19.7114 257.658 20.4282 255.814 21.5206 254.646C21.5206 254.646 21.5206 254.646 21.6998 254.185C20.3936 252.616 21.4858 251.448 20.9137 249.633C20.3588 249.418 19.9833 248.741 19.4284 248.525C16.4578 246.31 16.4577 246.31 12.9669 247.076C12.7704 245.939 13.5044 245.693 14.2384 245.447C16.4405 244.711 17.9084 244.22 20.1104 243.483C23.7805 242.255 27.4505 241.027 31.6754 240.015C36.0795 238.541 40.3044 237.529 44.1536 235.84C44.8876 235.594 45.0668 235.133 45.0668 235.133C45.246 234.672 44.6911 234.456 44.1363 234.241C43.0266 233.81 41.9169 233.379 40.6281 233.409C40.0732 233.193 38.9636 232.762 38.2296 233.007C37.8539 232.331 37.8539 232.331 38.0331 231.87C37.6574 231.193 37.2818 230.516 36.9062 229.839C35.9757 228.947 34.6868 228.977 33.9528 229.223C32.4848 229.714 31.5716 230.421 30.1036 230.912C29.1904 231.618 27.9016 231.648 26.9884 232.355C24.7864 233.092 22.7634 233.367 20.5614 234.104C18.3594 234.841 17.088 236.47 15.4408 237.422C14.5276 238.129 13.6144 238.836 11.9499 238.189C10.4646 237.081 10.268 235.943 10.6263 235.021C10.9847 234.099 11.7188 233.853 13.0076 233.823C14.4756 233.332 15.9437 232.841 17.4117 232.35C19.6137 231.613 21.4401 230.199 23.8386 230.601C24.5726 230.355 25.3065 230.109 26.0405 229.864C26.7745 229.618 27.5086 229.373 28.2426 229.127C30.6412 229.528 31.7334 228.36 33.3806 227.408C34.8486 226.917 35.3861 225.533 34.6348 224.18C34.4383 223.042 33.687 221.689 32.9357 220.335C32.1844 218.982 31.0748 218.551 29.4103 217.904C28.8382 216.089 29.3757 214.706 30.468 213.538C31.5604 212.37 33.3866 210.957 35.7851 211.358C37.074 211.328 37.808 211.082 39.0968 211.052C41.8537 210.531 43.8766 210.255 46.6508 211.333C47.2056 211.549 47.9396 211.303 48.4944 211.519C53.0949 211.183 57.6955 210.848 62.296 210.512C64.8737 210.452 67.0758 209.715 69.6535 209.655C75.5428 209.29 81.0566 208.247 86.5703 207.205C89.3271 206.684 92.084 206.163 94.6444 204.504C95.3784 204.258 95.5576 203.797 95.916 202.875C93.321 201.336 90.5467 200.258 87.6106 201.24C85.5878 201.516 83.9406 202.468 81.9005 201.145C82.6345 200.899 84.1024 200.408 84.8365 200.162C86.8593 199.887 89.0615 199.15 91.0843 198.874C94.5752 198.108 97.6904 196.664 101.181 195.897C103.938 195.376 106.319 194.178 108.7 192.98C110.348 192.028 111.995 191.076 114.018 190.8C115.486 190.309 115.486 190.309 116.757 188.68C116.382 188.003 115.827 187.788 114.538 187.818C109.937 188.153 105.158 188.95 100.754 190.424C98.5516 191.16 96.5287 191.436 94.8815 192.388C94.1475 192.634 93.4135 192.879 92.8587 192.664C90.281 192.724 88.079 193.461 85.3221 193.982C81.8313 194.748 78.8952 195.731 75.0287 195.821C74.653 195.144 75.3871 194.898 75.3871 194.898C78.3231 193.916 81.2592 192.934 84.1952 191.952C84.9292 191.706 85.6632 191.46 86.952 191.43C90.2637 191.125 93.1998 190.142 95.3845 187.807C95.5637 187.346 97.0316 186.854 97.7656 186.609C97.9448 186.148 98.124 185.687 98.858 185.441C98.6615 184.303 97.3727 184.333 96.6387 184.579C94.6159 184.854 92.4137 185.591 90.9457 186.082C89.2985 187.034 87.2757 187.31 85.4321 187.124C84.1432 187.154 82.6752 187.646 81.3863 187.676C80.6523 187.921 80.0975 187.706 78.9879 187.274C80.0802 186.107 82.1031 185.831 83.0163 185.124C84.4843 184.633 85.9523 184.142 86.4898 182.758C86.1141 182.082 85.5594 181.866 84.8254 182.112C83.5365 182.142 82.8024 182.387 82.0684 182.633C80.0455 182.908 77.8435 183.645 75.2658 183.705C73.9769 183.735 73.2429 183.981 71.7749 184.472C69.0181 184.993 66.816 185.73 64.614 186.467C59.8343 187.263 55.9851 188.952 51.2054 189.749C50.4714 189.995 49.0034 190.486 47.8937 190.055C47.3389 189.839 46.7842 189.624 46.9633 189.162C46.5877 188.486 46.7668 188.025 46.946 187.563C47.1252 187.102 47.8591 186.857 48.5931 186.611C52.8179 185.599 56.2915 183.233 60.5164 182.221C61.9844 181.73 63.4525 181.238 64.5448 180.071C65.458 179.364 66.926 178.873 67.66 178.627C69.128 178.136 71.3301 177.399 73.353 177.124C75.3758 176.848 76.4681 175.68 77.1848 173.836C76.8092 173.159 75.8787 172.266 75.5031 171.59C74.9482 171.374 74.9482 171.374 74.2142 171.62C67.7872 173.369 61.5396 174.657 55.1127 176.406C54.3787 176.651 53.8238 176.436 53.0898 176.681C51.0669 176.957 50.5122 176.741 49.5644 174.25C53.9684 172.777 57.8176 171.088 60.5398 167.368C59.985 167.153 59.4301 166.937 59.4301 166.937C55.7427 166.566 52.8067 167.548 49.495 167.854C47.4721 168.129 46.0042 168.621 44.1605 168.435C44.698 167.052 47.2757 166.992 48.1889 166.285C51.3041 164.841 54.7951 164.075 57.5346 161.955C58.4478 161.248 59.9158 160.757 60.6498 160.511C62.8518 159.774 65.0538 159.038 65.3949 156.516C65.7532 155.594 66.1116 154.672 66.4699 153.749C65.5221 151.258 63.3027 150.396 60.7251 150.456C58.1474 150.516 55.7488 150.115 53.5295 149.252C52.4198 148.821 51.1311 148.851 49.8422 148.881C47.8194 149.157 45.6001 148.294 44.4731 146.264C43.5426 145.372 42.7913 144.019 42.4156 143.342C41.6643 141.988 40.7338 141.096 39.9824 139.743C38.6936 139.773 38.1388 139.557 37.4048 139.803C35.9368 140.294 34.2722 139.647 32.7868 138.539C33.7 137.832 34.0584 136.91 34.9716 136.203C34.3995 134.389 33.8274 132.574 34.5441 130.73C34.9024 129.807 34.5267 129.131 34.3302 127.993C34.3129 126.394 34.8504 125.01 36.3185 124.519C37.0525 124.273 38.1448 123.106 38.8788 122.86C39.7919 122.153 39.2199 120.339 38.1102 119.908C37.0005 119.476 35.7117 119.506 34.9777 119.752C33.134 119.566 31.6659 120.058 29.8222 119.872C27.7993 120.148 25.9557 119.962 24.2912 119.315C22.6267 118.669 20.9623 118.022 20.945 116.423C20.7485 115.285 18.9048 115.099 18.1535 113.746C19.2458 112.578 20.3382 111.41 21.8062 110.919C24.0082 110.182 25.6554 109.23 25.8172 107.17C24.8867 106.277 24.1354 104.924 23.2049 104.032C21.1647 102.708 19.1593 104.583 16.206 103.966C17.674 103.475 18.5871 102.768 19.5003 102.062L19.6795 101.6C20.0205 99.0791 19.6448 98.4024 16.8706 97.3245C16.3158 97.1089 15.761 96.8934 15.2062 96.6778C14.6514 96.4622 13.5417 96.0311 12.8077 96.2767C11.8772 95.3844 12.2355 94.462 12.5939 93.5397C12.9522 92.6174 13.8654 91.9107 13.4897 91.234C13.4724 89.6349 13.6516 89.1738 15.1196 88.6827C15.8537 88.4371 16.0329 87.9759 16.212 87.5148C17.3044 86.3469 18.2176 85.6402 20.2404 85.3646C22.8181 85.3046 25.1993 84.1067 27.2222 83.8311C27.2222 83.8311 27.2221 83.8311 26.6673 83.6155C28.6902 83.3399 30.5338 83.5255 32.7358 82.7887C34.9378 82.052 36.9607 81.7764 38.9835 81.5008C40.4515 81.0097 41.7404 80.9797 43.0119 79.3506C44.1043 78.1828 45.948 78.3683 47.2368 78.3383C47.9708 78.0928 49.0804 78.5239 49.8145 78.2783C51.1033 78.2483 52.5714 77.7572 53.681 78.1883C54.2359 78.4039 54.2359 78.4039 54.9699 78.1583C58.2816 77.8527 62.148 77.7627 65.6389 76.9959C66.3729 76.7503 67.6619 76.7204 68.2167 76.936C68.7715 77.1516 68.7714 77.1515 69.5054 76.906C75.1983 75.4025 81.4634 75.7136 87.1563 74.2101C87.8903 73.9646 88.6242 73.7189 89.3583 73.4734C91.2019 73.6589 92.67 73.1678 93.7623 71.9999C95.4095 71.0476 96.8776 70.5565 99.2762 70.9576C101.12 71.1432 102.409 71.1131 103.877 70.622C106.079 69.8852 108.836 69.3641 111.592 68.8429C113.06 68.3518 114.528 67.8606 115.621 66.6928C115.245 66.016 114.69 65.8005 113.956 66.0461C111.379 66.1061 108.801 66.1661 106.044 66.6872C104.021 66.9628 101.443 67.0228 99.4206 67.2984C98.6866 67.544 96.8429 67.3584 95.7332 66.9272C94.0688 66.2805 92.78 66.3106 91.4912 66.3406C90.2023 66.3706 89.4683 66.6162 88.1795 66.6462C87.6246 66.4306 86.8905 66.6761 86.5149 65.9994C85.5844 65.1071 84.2956 65.1371 83.9372 66.0594C82.6657 67.6884 80.2672 67.2873 78.2444 67.5629C75.8286 65.5628 73.2681 67.2218 71.0488 66.3595C70.494 66.1439 70.3147 66.605 69.7599 66.3895C64.067 67.8929 58.1776 68.2585 52.6639 69.3008C51.9299 69.5464 51.3751 69.3309 50.8203 69.1153C46.3816 67.3907 42.1568 68.403 38.4867 69.6309C37.7527 69.8765 37.7527 69.8765 37.0186 70.1221C34.6201 69.7209 32.5973 69.9965 30.5744 70.2721C27.2627 70.5777 24.5059 71.0989 21.1942 71.4045C19.1714 71.68 17.1486 71.9556 15.5014 72.908C15.3222 73.3691 14.7673 73.1535 13.4785 73.1835C13.1028 72.5068 13.2821 72.0457 12.9064 71.3689C12.3343 69.5543 11.5829 68.2009 10.0975 67.093C8.43304 66.4463 8.79132 65.524 9.70451 64.8172C14.4669 62.4214 15.2009 62.1759 21.2695 61.3491C24.7604 60.5824 28.6269 60.4924 32.1178 59.7256C34.1406 59.4501 36.1635 59.1744 38.1863 58.8989C38.9203 58.6533 39.4753 58.8689 40.0301 59.0845C40.5849 59.3001 41.8737 59.27 42.6077 59.0245C44.9889 57.8266 47.9422 58.4432 50.5199 58.3832C51.8087 58.3532 52.5427 58.1077 53.8316 58.0777C56.0336 57.3409 58.6113 57.2809 61.189 57.2209C62.4778 57.1909 64.5007 56.9153 65.7896 56.8853C66.3444 57.1009 66.5235 56.6397 67.2575 56.3941C71.3205 57.442 75.1698 55.753 79.0364 55.663C80.88 55.8485 83.082 55.1118 84.55 54.6206C88.0409 53.8539 91.5318 53.0872 95.3983 52.9972C99.9988 52.6616 104.779 51.8648 109.379 51.5292C110.113 51.2836 111.402 51.2536 112.136 51.0081C116.361 49.9957 119.852 49.229 124.452 48.8934C126.475 48.6178 128.122 47.6655 129.394 46.0365C129.573 45.5753 129.752 45.1142 129.376 44.4374C129.001 43.7607 128.625 43.084 128.25 42.4073C119.782 42.8329 111.136 43.7197 102.669 44.1453C101.38 44.1753 100.646 44.4208 99.3575 44.4509C96.6006 44.972 93.289 45.2776 89.9773 45.5832C86.6656 45.8888 83.9086 46.4099 80.5969 46.7155C79.8629 46.9611 78.5741 46.9911 78.0192 46.7755C71.575 46.9255 65.6857 47.2912 59.6172 48.1179C56.8603 48.6391 54.2826 48.6991 51.7049 48.7591C48.3932 49.0647 45.6364 49.5858 42.3247 49.8914C39.013 50.197 36.2562 50.7182 32.7653 51.4849C30.7424 51.7605 28.7195 52.0361 27.2515 52.5272C25.928 49.3592 25.3732 49.1436 22.599 48.0657C21.4893 47.6346 20.9345 47.419 19.6456 47.449C16.7096 48.4313 13.2015 47.599 10.4446 48.1202C8.9766 48.6113 6.95371 48.8869 5.86135 50.0548C4.94817 50.7616 3.48019 51.2527 2.56701 51.9594C0.330358 49.4981 0.313113 47.8991 2.69432 46.7012C3.42832 46.4557 4.16227 46.21 4.89628 45.9645C5.80946 45.2577 6.36426 45.4733 7.6531 45.4433C9.49677 45.6289 10.7856 45.5989 11.6988 44.8922C13.1668 44.401 14.0801 43.6943 15.7446 44.341C16.8542 44.7721 17.9466 43.6042 18.6806 43.3586C19.5938 42.6519 20.8826 42.6219 21.9923 43.0531C22.5471 43.2687 23.2812 43.0231 23.2812 43.0231C24.9284 42.0708 26.772 42.2563 28.7948 41.9808C31.9273 42.1363 34.8635 41.154 37.6203 40.6329C39.0884 40.1417 40.7354 39.1894 42.3826 38.2371C43.1166 37.9915 43.2958 37.5304 44.0299 37.2848C46.7867 36.7636 49.74 37.3803 52.6934 37.997C53.803 38.4282 54.9127 38.8593 55.6467 38.6137C57.4904 38.7993 59.8889 39.2004 62.0909 38.4637C64.8478 37.9425 68.1594 37.6369 71.292 37.7925C73.3148 37.5169 75.1586 37.7025 77.1815 37.427C79.2043 37.1514 81.048 37.3369 83.0708 37.0614C85.0937 36.7858 87.1165 36.5101 88.7636 35.5578C89.4977 35.3123 89.856 34.39 90.0352 33.9288C86.8854 32.1742 84.1286 32.6954 81.5509 32.7554C80.8169 33.001 79.5281 33.031 78.9732 32.8154C78.2392 33.061 77.6843 32.8454 77.1294 32.6298C77.4878 31.7075 77.8461 30.7852 78.0253 30.3241C80.0482 30.0485 82.071 29.7729 84.0938 29.4973C85.5618 29.0062 87.6021 30.3297 89.2493 29.3773C91.6478 29.7785 93.4742 28.365 96.0519 28.305C98.6295 28.245 101.028 28.6462 103.051 28.3706C105.074 28.095 107.097 27.8194 109.119 27.5438C109.853 27.2982 110.587 27.0526 111.142 27.2682C113.541 27.6693 115.188 26.7171 116.46 25.088C116.084 24.4113 116.263 23.9501 116.067 22.8122C117.159 21.6444 118.448 21.6143 119.916 21.1232C120.65 20.8776 121.384 20.6321 121.939 20.8477C123.228 20.8177 123.586 19.8953 123.389 18.7574C119.864 16.3261 119.864 16.3262 116.39 18.6919C119.164 19.7698 117.876 19.7997 116.587 19.8297ZM612.041 245.24L611.862 245.701C611.307 245.485 611.487 245.024 612.041 245.24C612.775 244.994 612.776 244.994 612.776 244.994C612.221 244.778 612.041 245.24 612.041 245.24ZM565.109 43.8899C563.999 43.4588 563.445 43.2432 562.335 42.812C561.78 42.5965 561.046 42.842 560.867 43.3032C560.688 43.7643 561.243 43.9799 561.797 44.1955C563.283 45.3034 564.572 45.2734 565.109 43.8899C565.664 44.1055 565.664 44.1055 565.843 43.6443C565.664 44.1055 565.664 44.1055 565.109 43.8899ZM24.4911 256.862C25.2251 256.616 25.78 256.832 26.5141 256.586C29.4501 255.604 31.6522 254.867 34.5882 253.885C38.2582 252.657 41.5525 250.752 45.9738 250.878C47.2627 250.848 48.9099 249.896 50.3779 249.404C51.1119 249.159 52.0252 248.452 52.7592 248.207C56.4293 246.979 59.92 246.212 64.1449 245.2C64.8789 244.954 65.0581 244.493 65.9713 243.786C65.4165 243.571 64.3069 243.139 64.3069 243.139C63.5729 243.385 62.8387 243.631 62.1047 243.876C61.1916 244.583 60.4576 244.828 59.1687 244.858C57.8799 244.888 57.1459 245.134 55.8571 245.164C53.8342 245.44 51.8114 245.715 49.6094 246.452C48.3378 248.081 46.4941 247.895 44.4712 248.171C43.9164 247.955 43.1825 248.201 43.0033 248.662C37.8653 250.381 32.7272 252.1 28.144 254.035C27.41 254.28 26.4967 254.987 25.5835 255.694C24.2947 255.724 24.6703 256.401 24.4911 256.862C23.7571 257.107 23.7571 257.107 24.4911 256.862C23.7571 257.107 24.3119 257.323 24.4911 256.862ZM207.302 369.821C207.302 369.821 207.123 370.282 207.302 369.821C207.123 370.282 207.302 369.821 207.302 369.821C208.591 369.791 209.325 369.546 210.614 369.516C211.724 369.947 212.458 369.701 213.192 369.456C217.972 368.659 222.948 369 227.924 369.341C228.479 369.557 229.213 369.311 229.947 369.066C231.415 368.574 232.704 368.544 234.172 368.053C235.64 367.562 235.64 367.562 235.247 365.286C234.692 365.071 233.582 364.64 233.027 364.424C232.473 364.208 231.918 363.993 231.738 364.454C230.646 365.622 228.248 365.221 226.78 365.712C221.624 365.832 216.469 365.952 211.314 366.072C210.025 366.102 209.291 366.348 208.002 366.378C207.268 366.623 206.713 366.408 205.979 366.653C205.245 366.899 205.066 367.36 205.441 368.037C206.748 369.606 207.302 369.821 207.302 369.821ZM332.396 16.6335C333.864 16.1424 335.886 15.8668 337.354 15.3756C338.088 15.1301 338.822 14.8845 339.377 15.1C343.065 15.4712 346.18 14.0277 349.116 13.0454C350.405 13.0154 351.318 12.3087 352.607 12.2786C356.294 12.6498 359.964 11.4219 363.455 10.6552C365.478 10.3796 367.68 9.64283 369.882 8.90609C370.616 8.66051 370.795 8.19936 370.419 7.52263C370.599 7.06148 369.668 6.1692 368.934 6.41478C367.09 6.22921 364.513 6.28923 362.49 6.5648C361.022 7.05597 358.999 7.33158 356.976 7.60717C354.953 7.88275 353.306 8.83502 351.462 8.64945C350.908 8.43387 349.44 8.92505 348.706 9.17062C347.058 10.1229 345.77 10.1529 343.926 9.96733C342.637 9.99733 342.082 9.78178 340.614 10.2729C338.412 11.0097 335.655 11.5308 333.453 12.2676C332.719 12.5131 331.985 12.7588 331.43 12.5432C327.564 12.6332 324.252 12.9388 320.386 13.0288C317.808 13.0888 315.051 13.61 312.473 13.67C310.451 13.9456 307.873 14.0056 306.226 14.9579C304.024 15.6946 302.001 15.9702 299.978 16.2458C296.487 17.0125 292.996 17.7792 289.685 18.0848C286.928 18.606 284.905 18.8816 282.327 18.9416C281.038 18.9716 279.749 19.0016 279.391 19.9239C278.657 20.1695 277.923 20.4151 277.368 20.1995C273.502 20.2895 269.26 19.7028 265.965 21.6074C265.231 21.853 265.231 21.853 264.497 22.0986C261.186 22.4042 257.695 23.1709 254.383 23.4765C253.649 23.7221 252.915 23.9676 252.181 24.2132C252.557 24.8899 252.932 25.5667 253.487 25.7823C256.44 26.399 259.018 26.3389 261.775 25.8178C266.555 25.021 270.6 24.4699 275.756 24.3499C279.622 24.2599 282.934 23.9543 286.049 22.5108C288.43 21.3129 291.008 21.2529 293.961 21.8697C295.071 22.3008 296.36 22.2708 297.273 21.5641C298.741 21.0729 299.296 21.2885 300.585 21.2585C303.163 21.1985 305.74 21.1384 307.763 20.8628C309.965 20.1261 312.167 19.3893 314.924 18.8682C317.681 18.347 320.993 18.0415 323.929 17.0592C326.327 17.4603 329.639 17.1547 332.396 16.6335ZM125.661 24.4168C125.678 26.0159 126.233 26.2314 127.342 26.6626C130.296 27.2793 133.804 28.1116 136.919 26.6681C138.566 25.7158 140.589 25.4402 142.808 26.3025C145.583 27.3804 147.23 26.428 149.432 25.6913C150.166 25.4457 150.345 24.9846 150.345 24.9846C150.524 24.5234 150.703 24.0623 150.703 24.0623C150.149 23.8467 149.773 23.17 149.773 23.17C145.906 23.26 142.04 23.35 138.173 23.44C137.439 23.6856 136.885 23.4701 136.33 23.2545C132.463 23.3445 129.151 23.6501 125.661 24.4168ZM143.357 42.9695C144.484 44.9997 144.484 44.9997 145.594 45.4308C149.478 46.9398 153.899 47.0654 157.945 46.5142C158.679 46.2686 159.413 46.0231 160.326 45.3164C161.06 45.0708 161.239 44.6097 160.864 43.9329C160.488 43.2562 160.488 43.2562 160.112 42.5795C157.535 42.6395 155.136 42.2383 152.558 42.2983C149.426 42.1427 146.669 42.6639 143.357 42.9695ZM209.776 360.167C210.545 363.12 210.545 363.12 213.677 363.275C215.521 363.461 217.365 363.646 219.388 363.371C221.41 363.095 223.988 363.035 226.011 362.759C227.3 362.729 228.213 362.023 227.837 361.346C227.462 360.669 226.531 359.777 225.242 359.807C224.688 359.591 224.508 360.053 223.953 359.837C222.665 359.867 221.376 359.897 219.353 360.173C217.33 360.448 215.307 360.724 213.267 359.4C211.978 359.43 210.69 359.46 209.776 360.167ZM157.327 23.4511C157.702 24.1278 158.257 24.3435 158.633 25.0202C160.673 26.3436 162.517 26.5292 164.54 26.2536C165.274 26.008 166.563 25.978 167.117 26.1936C168.782 26.8403 170.25 26.3491 171.539 26.3191L172.273 26.0735C172.452 25.6124 172.81 24.6901 172.989 24.2289C172.435 24.0134 171.325 23.5822 171.325 23.5822C168.747 23.6422 166.904 23.4567 164.326 23.5167C163.037 23.5467 161.193 23.3611 159.725 23.8522C158.795 22.9599 158.061 23.2055 157.327 23.4511ZM40.9337 278.643C41.685 279.996 42.4362 281.349 43.3667 282.242C45.7652 282.643 46.8576 281.475 47.95 280.307C48.3083 279.385 48.6668 278.462 47.7363 277.57C46.8058 276.678 45.8753 275.786 44.5864 275.816C43.1184 276.307 42.0261 277.475 40.9337 278.643ZM73.4498 254.123C70.8721 254.183 69.2077 253.536 67.5605 254.488C66.0925 254.979 64.6244 255.47 63.5147 255.039C60.7405 253.961 57.9838 254.483 55.7818 255.219C55.7818 255.219 55.6026 255.68 54.8686 255.926C55.4234 256.142 55.9783 256.357 55.9783 256.357C58.556 256.297 60.3997 256.483 62.4225 256.207C63.7113 256.177 65.1792 255.686 66.2889 256.117C68.1326 256.303 69.6007 255.812 71.6235 255.536C72.3575 255.29 72.5366 254.829 73.4498 254.123ZM355.67 6.03809C353.63 4.71466 351.965 4.06792 349.942 4.34352C348.474 4.83467 347.561 5.54143 347.024 6.92488C347.579 7.14046 348.688 7.5716 349.422 7.32603C351.266 7.51159 352.734 7.02042 355.67 6.03809ZM531.547 39.8729C530.062 38.7651 528.218 38.5795 526.75 39.0707C526.195 38.8551 526.392 39.993 526.213 40.4541C526.034 40.9153 526.409 41.592 527.143 41.3464C528.808 41.9931 530.276 41.502 531.547 39.8729ZM542.303 46.7058C542.482 46.2446 541.551 45.3523 540.997 45.1367C540.263 45.3823 539.529 45.6279 538.795 45.8735C538.061 46.119 538.257 47.2569 538.812 47.4725C540.297 48.5804 541.765 48.0892 542.303 46.7058ZM189.172 22.0243C187.687 20.9164 186.219 21.4076 184.375 21.222C183.82 21.0064 182.532 21.0364 182.352 21.4976C182.549 22.6355 183.462 21.9287 184.017 22.1443C186.791 23.2222 188.259 22.731 189.172 22.0243ZM534.325 177.359C533.036 177.389 532.481 177.174 531.747 177.419L531.389 178.342C531.389 178.342 531.765 179.018 532.319 179.234C533.429 179.665 533.787 178.743 534.325 177.359ZM648.1 275.703C648.475 276.38 648.851 277.057 649.406 277.272C649.961 277.488 650.515 277.703 650.695 277.242C650.874 276.781 651.053 276.32 651.053 276.32C651.053 276.32 650.677 275.643 650.122 275.428C649.388 275.673 648.834 275.458 648.1 275.703ZM158.76 19.7619C157.65 19.3308 156.541 18.8996 154.894 19.8519C157.292 20.253 157.292 20.2531 158.76 19.7619ZM179.988 24.2945C179.237 22.941 177.948 22.971 177.214 23.2166C177.214 23.2166 177.035 23.6778 176.856 24.1389C176.856 24.1389 177.232 24.8157 177.786 25.0312C178.52 24.7857 179.254 24.5401 179.988 24.2945ZM255.926 12.93C256.106 12.4689 256.105 12.4689 255.551 12.2533L254.996 12.0377L254.817 12.4989C255.371 12.7144 255.372 12.7145 255.926 12.93ZM214.764 378.559L214.03 378.804C214.03 378.804 214.03 378.804 214.585 379.02C214.585 379.02 214.585 379.02 214.764 378.559C215.139 379.235 214.764 378.559 214.764 378.559ZM586.754 35.8458C586.754 35.8458 586.199 35.6302 586.02 36.0914L585.84 36.5525L586.395 36.7681C587.129 36.5225 587.129 36.5225 586.754 35.8458ZM536.772 46.1491C536.593 46.6102 536.593 46.6102 536.772 46.1491C536.038 46.3946 536.038 46.3946 536.038 46.3946L536.593 46.6102C537.148 46.8258 537.148 46.8258 536.772 46.1491ZM90.3217 179.47L89.7668 179.255C89.7668 179.255 89.7669 179.255 89.2121 179.039C89.7669 179.255 89.5876 179.716 90.3217 179.47C90.1425 179.932 90.3217 179.47 90.3217 179.47Z" fill="#F4F5F7"/>
</svg>
