<svg width="23" height="23" viewBox="0 0 23 23" fill="none" xmlns="http://www.w3.org/2000/svg">
<path fill-rule="evenodd" clip-rule="evenodd" d="M6.28547 19.3806C7.08932 19.3806 7.74344 20.0336 7.74344 20.8374C7.74344 21.6413 7.08932 22.2954 6.28547 22.2954C5.48162 22.2954 4.82863 21.6413 4.82863 20.8374C4.82863 20.0336 5.48162 19.3806 6.28547 19.3806ZM18.9853 19.3806C19.7903 19.3806 20.4444 20.0336 20.4444 20.8374C20.4444 21.6413 19.7903 22.2954 18.9853 22.2954C18.1815 22.2954 17.5285 21.6413 17.5285 20.8374C17.5285 20.0336 18.1815 19.3806 18.9853 19.3806ZM1.47158 0.306091L3.81334 0.711395C4.1905 0.77782 4.47759 1.0908 4.51024 1.47359L4.77481 4.62708L5.75863 4.62751C5.91917 4.62758 6.07801 4.62765 6.23517 4.62772L8.04136 4.62858C8.18534 4.62865 8.3277 4.62872 8.46847 4.62879L10.4628 4.62989C10.5881 4.62996 10.7119 4.63004 10.8342 4.63011L12.2317 4.631C12.3424 4.63108 12.4517 4.63115 12.5596 4.63123L13.7888 4.63213C13.8859 4.63221 13.9816 4.63228 14.0761 4.63236L15.1478 4.63328C15.2321 4.63336 15.3152 4.63343 15.397 4.63351L16.1014 4.63421C16.1762 4.63429 16.2498 4.63437 16.3222 4.63445L17.1379 4.63539C17.2016 4.63547 17.2641 4.63555 17.3256 4.63563L18.0144 4.63659C18.0678 4.63668 18.1202 4.63676 18.1716 4.63684L18.6094 4.63757C18.6552 4.63765 18.7002 4.63773 18.7443 4.63781L19.2319 4.6388C19.2692 4.63888 19.3057 4.63897 19.3413 4.63905L19.6414 4.6398C19.6725 4.63988 19.7028 4.63997 19.7324 4.64005L20.0542 4.64107C20.0783 4.64115 20.1017 4.64124 20.1246 4.64132L20.3135 4.64209C20.3327 4.64218 20.3513 4.64227 20.3694 4.64235L20.5604 4.64339C20.5743 4.64348 20.5877 4.64357 20.6006 4.64365L20.7048 4.64445C20.7151 4.64453 20.7249 4.64462 20.7344 4.64471L20.8093 4.64551C20.8166 4.6456 20.8235 4.64569 20.8301 4.64578L20.8811 4.64659C20.8859 4.64668 20.8904 4.64677 20.8947 4.64686L20.927 4.64767C20.93 4.64776 20.9327 4.64786 20.9353 4.64795L20.9587 4.64905C20.9601 4.64914 20.9614 4.64923 20.9626 4.64933C20.9736 4.65035 20.9752 4.65054 20.9768 4.65072C21.6039 4.74192 22.1556 5.06954 22.5316 5.57392C22.9077 6.07717 23.0653 6.69751 22.9752 7.31898L21.9068 14.7023C21.7053 16.1073 20.4848 17.1667 19.0663 17.1667H6.77093C5.2882 17.1667 4.03288 16.0094 3.91241 14.5289L2.88114 2.26393L1.18449 1.97122C0.724023 1.89015 0.416668 1.45445 0.495477 0.993982C0.576538 0.533512 1.02125 0.234037 1.47158 0.306091ZM5.53277 6.31623L4.91667 6.31585L5.59555 14.3904C5.64509 15.0119 6.15284 15.478 6.77318 15.478H19.064C19.6506 15.478 20.1516 15.0411 20.2349 14.4613L21.3045 7.07692C21.3292 6.90129 21.2853 6.72566 21.1784 6.5838C21.0725 6.44082 20.9172 6.3485 20.7415 6.32373C20.7334 6.32404 20.714 6.32432 20.6838 6.32458L20.5613 6.32528C20.5357 6.32539 20.5075 6.32549 20.4769 6.32558L19.8391 6.32655C19.7852 6.32659 19.7293 6.32662 19.6713 6.32665L18.1717 6.32659C18.088 6.32655 18.0027 6.32652 17.916 6.32648L16.2046 6.32544C16.102 6.32537 15.9984 6.32529 15.8937 6.32521L14.9253 6.32443C14.815 6.32434 14.7039 6.32425 14.592 6.32415L13.5662 6.32325C13.4504 6.32315 13.334 6.32304 13.2171 6.32293L12.5106 6.32228C12.392 6.32217 12.2731 6.32206 12.1539 6.32195L11.0757 6.32095C10.9555 6.32083 10.8352 6.32072 10.7149 6.32061L9.99362 6.31994C9.87359 6.31983 9.75369 6.31972 9.634 6.31961L8.91886 6.31896C8.80026 6.31885 8.68201 6.31875 8.56416 6.31864L7.51655 6.31774C7.4018 6.31764 7.28767 6.31755 7.17423 6.31746L5.85032 6.31645C5.74348 6.31638 5.63761 6.3163 5.53277 6.31623ZM17.2558 8.78854C17.7219 8.78854 18.1002 9.16683 18.1002 9.63292C18.1002 10.099 17.7219 10.4773 17.2558 10.4773H14.135C13.6677 10.4773 13.2906 10.099 13.2906 9.63292C13.2906 9.16683 13.6677 8.78854 14.135 8.78854H17.2558Z" fill="#223865"/>
</svg>
