<svg width="27" height="36" viewBox="0 0 27 36" fill="none" xmlns="http://www.w3.org/2000/svg">
<path d="M15.7286 5.56831C15.5061 5.32361 15.1907 5.18422 14.86 5.18422C14.5294 5.18422 14.2139 5.3236 13.9915 5.56831C13.9915 5.56831 13.5925 6.01424 12.9587 6.74209H12.9585C11.6935 4.68094 10.2729 2.7188 8.70955 0.873223C8.48659 0.612531 8.16065 0.462402 7.81741 0.462402C7.47418 0.462402 7.14826 0.612531 6.92528 0.873223C6.2915 1.65978 0.774777 8.18616 0.774777 11.9067C0.763773 13.2667 1.12979 14.6029 1.83225 15.7673C2.5347 16.9317 3.54602 17.8788 4.75387 18.5034C3.81042 20.1787 3.25311 22.0433 3.12239 23.9615C3.12239 27.0746 4.35908 30.0601 6.5604 32.261C8.76146 34.4624 11.747 35.6991 14.86 35.6991C17.973 35.6991 20.9586 34.4624 23.1596 32.261C25.3609 30.06 26.5976 27.0744 26.5976 23.9615C26.5976 17.8578 16.8432 6.81231 15.7284 5.56811L15.7286 5.56831ZM3.12225 11.9067C3.12225 10.0287 5.71635 6.13159 7.81734 3.4904C9.91833 6.13139 12.5124 10.0285 12.5124 11.9067C12.5567 13.1947 12.0864 14.4471 11.2056 15.3876C10.3245 16.328 9.10541 16.8789 7.81734 16.9188C6.52934 16.8789 5.31023 16.3279 4.42909 15.3876C3.54823 14.4471 3.07791 13.1947 3.12225 11.9067ZM14.86 33.3519C12.3696 33.3519 9.98124 32.3625 8.22005 30.6016C6.45912 28.8404 5.46979 26.452 5.46979 23.9617C5.62385 22.2741 6.16199 20.6439 7.04258 19.1961C7.29908 19.2372 7.55768 19.2608 7.81734 19.2666C9.72368 19.2265 11.5362 18.4313 12.8567 17.0558C14.1772 15.6803 14.8977 13.8368 14.86 11.9305C14.8034 10.9328 14.5521 9.956 14.1206 9.05474L14.86 8.13933C18.1229 11.9541 24.2502 19.9475 24.2502 23.9618C24.2502 26.4521 23.2608 28.8405 21.4999 30.6017C19.7387 32.3626 17.3503 33.352 14.86 33.352V33.3519Z" fill="#223865"/>
</svg>
