<svg width="23" height="23" viewBox="0 0 23 23" fill="none" xmlns="http://www.w3.org/2000/svg">
<path fill-rule="evenodd" clip-rule="evenodd" d="M10.974 0.385254C16.6288 0.385254 21.2285 4.98492 21.2285 10.6397C21.2285 13.3076 20.2046 15.7409 18.5292 17.5671L21.826 20.857C22.1345 21.1656 22.1356 21.6647 21.827 21.9732C21.6733 22.1291 21.4701 22.206 21.2679 22.206C21.0667 22.206 20.8646 22.1291 20.7098 21.9753L17.3732 18.6481C15.618 20.0537 13.3925 20.8952 10.974 20.8952C5.31922 20.8952 0.718506 16.2945 0.718506 10.6397C0.718506 4.98492 5.31922 0.385254 10.974 0.385254ZM10.974 1.96481C6.19008 1.96481 2.29806 5.85578 2.29806 10.6397C2.29806 15.4237 6.19008 19.3157 10.974 19.3157C15.7569 19.3157 19.6489 15.4237 19.6489 10.6397C19.6489 5.85578 15.7569 1.96481 10.974 1.96481Z" fill="black"/>
</svg>
