<svg width="21" height="13" viewBox="0 0 21 13" fill="none" xmlns="http://www.w3.org/2000/svg">
<path fill-rule="evenodd" clip-rule="evenodd" d="M10.5644 0.692101C14.182 0.692101 17.5584 2.75979 20.1086 6.37804C20.2556 6.58651 20.2556 6.86488 20.1086 7.07323C17.5576 10.6916 14.1817 12.7588 10.5644 12.7588C6.9474 12.7588 3.57108 10.6917 1.02116 7.07392C0.874234 6.86557 0.874234 6.58735 1.02103 6.37886C3.57018 2.75982 6.94658 0.691895 10.5646 0.691895L10.5644 0.692101ZM10.5644 1.89879C7.59491 1.89879 4.76467 3.50697 2.50091 6.40837L2.25809 6.72567L2.50091 7.04472C4.68144 9.83748 7.38664 11.4316 10.2351 11.5457L10.5644 11.5523C13.5333 11.5523 16.3634 9.94465 18.6286 7.04373L18.8696 6.72428L18.6287 6.40739C16.4479 3.61407 13.7426 2.01951 10.8938 1.90539L10.5644 1.89879ZM10.565 3.10549C12.5643 3.10549 14.1851 4.72632 14.1851 6.72556C14.1851 8.72481 12.5643 10.3456 10.565 10.3456C8.5658 10.3456 6.94497 8.72481 6.94497 6.72556C6.94497 4.72632 8.5658 3.10549 10.565 3.10549ZM10.565 4.31218C9.23217 4.31218 8.15167 5.39269 8.15167 6.72556C8.15167 8.05844 9.23217 9.13895 10.565 9.13895C11.8979 9.13895 12.9784 8.05844 12.9784 6.72556C12.9784 5.39269 11.8979 4.31218 10.565 4.31218Z" fill="#223865"/>
</svg>
