<svg width="17" height="17" viewBox="0 0 17 17" fill="none" xmlns="http://www.w3.org/2000/svg">
<path d="M16.0283 8.26855C16.0283 3.8498 12.4471 0.268555 8.02832 0.268555C3.60957 0.268555 0.0283203 3.8498 0.0283203 8.26855C0.0283203 12.6873 3.60957 16.2686 8.02832 16.2686C8.0752 16.2686 8.12207 16.2686 8.16895 16.2654V10.0404H6.4502V8.0373H8.16895V6.5623C8.16895 4.85293 9.2127 3.92168 10.7377 3.92168C11.4689 3.92168 12.0971 3.9748 12.2783 3.9998V5.7873H11.2283C10.4002 5.7873 10.2377 6.18105 10.2377 6.75918V8.03418H12.2221L11.9627 10.0373H10.2377V15.9592C13.5814 14.9998 16.0283 11.9217 16.0283 8.26855Z" fill="white"/>
</svg>
