<svg width="22" height="19" viewBox="0 0 22 19" fill="none" xmlns="http://www.w3.org/2000/svg">
<path d="M11.0931 18.8703L18.4646 11.4988C20.8007 9.16273 21.6972 6.48087 20.9194 4.14485C20.2957 2.26841 18.687 0.922362 16.7223 0.636989C14.6716 0.338926 12.6563 1.22537 11.0906 3.09179C9.52735 1.22803 7.51206 0.339124 5.45889 0.636989C3.49154 0.922366 1.88285 2.26841 1.26173 4.14485C0.486468 6.48335 1.38046 9.16278 3.71653 11.4988L11.0931 18.8703ZM2.46112 4.53854C2.93342 3.11677 4.15316 2.09889 5.64311 1.88189C5.84006 1.85405 6.03454 1.8389 6.23149 1.8389C7.82751 1.8389 9.38317 2.77836 10.5752 4.48555L11.0929 5.22559L11.6082 4.48573C12.9467 2.56893 14.7447 1.6219 16.5405 1.88211C18.0331 2.09931 19.2528 3.11699 19.7224 4.53876C20.3437 6.40762 19.5583 8.61985 17.5708 10.6047L11.0931 17.0874L4.61044 10.607C2.62546 8.6194 1.83978 6.4074 2.46112 4.53854Z" fill="white"/>
</svg>
