<svg width="16" height="15" viewBox="0 0 16 15" fill="none" xmlns="http://www.w3.org/2000/svg">
<path d="M7.80337 1.68055C9.75315 1.68055 9.9844 1.68785 10.7548 1.72315C12.7338 1.81321 13.6582 2.7522 13.7483 4.71659C13.7836 5.4864 13.7903 5.71765 13.7903 7.66744C13.7903 9.61784 13.783 9.84848 13.7483 10.6183C13.6576 12.5809 12.7356 13.5217 10.7548 13.6117C9.9844 13.647 9.75437 13.6543 7.80337 13.6543C5.85358 13.6543 5.62233 13.647 4.85252 13.6117C2.86865 13.5211 1.94914 12.5778 1.85907 10.6177C1.82378 9.84787 1.81647 9.61723 1.81647 7.66683C1.81647 5.71704 1.82439 5.4864 1.85907 4.71598C1.94975 2.7522 2.8717 1.8126 4.85252 1.72254C5.62294 1.68785 5.85358 1.68055 7.80337 1.68055ZM7.80337 0.364258C5.82011 0.364258 5.57182 0.372777 4.79288 0.408073C2.14083 0.529783 0.666927 2.00125 0.545217 4.65574C0.509313 5.43529 0.500793 5.68357 0.500793 7.66683C0.500793 9.65009 0.509313 9.89898 0.544609 10.6779C0.666318 13.33 2.13779 14.8039 4.79227 14.9256C5.57182 14.9609 5.82011 14.9694 7.80337 14.9694C9.78662 14.9694 10.0355 14.9609 10.8145 14.9256C13.4641 14.8039 14.9416 13.3324 15.0615 10.6779C15.0974 9.89898 15.1059 9.65009 15.1059 7.66683C15.1059 5.68357 15.0974 5.43529 15.0621 4.65635C14.9429 2.00673 13.4696 0.530391 10.8151 0.408682C10.0355 0.372777 9.78662 0.364258 7.80337 0.364258V0.364258ZM7.80337 3.91696C5.73248 3.91696 4.0535 5.59594 4.0535 7.66683C4.0535 9.73772 5.73248 11.4173 7.80337 11.4173C9.87426 11.4173 11.5532 9.73833 11.5532 7.66683C11.5532 5.59594 9.87426 3.91696 7.80337 3.91696ZM7.80337 10.101C6.45908 10.101 5.36918 9.01172 5.36918 7.66683C5.36918 6.32255 6.45908 5.23264 7.80337 5.23264C9.14765 5.23264 10.2376 6.32255 10.2376 7.66683C10.2376 9.01172 9.14765 10.101 7.80337 10.101ZM11.7017 2.89277C11.2173 2.89277 10.8248 3.28529 10.8248 3.76908C10.8248 4.25288 11.2173 4.64539 11.7017 4.64539C12.1855 4.64539 12.5774 4.25288 12.5774 3.76908C12.5774 3.28529 12.1855 2.89277 11.7017 2.89277Z" fill="white"/>
</svg>
