<svg width="13" height="13" viewBox="0 0 13 13" fill="none" xmlns="http://www.w3.org/2000/svg">
<path d="M6.26845 1.19435C7.92112 1.19435 8.11686 1.20064 8.76952 1.23041C9.37299 1.25796 9.70072 1.35879 9.91884 1.44353C10.2077 1.55581 10.4139 1.68996 10.6305 1.90653C10.8471 2.12311 10.9812 2.32932 11.0935 2.6182C11.1783 2.83633 11.2791 3.16406 11.3066 3.7675C11.3364 4.42018 11.3427 4.61593 11.3427 6.2686C11.3427 7.92127 11.3364 8.11701 11.3066 8.76967C11.2791 9.37313 11.1783 9.70086 11.0935 9.91899C10.9812 10.2079 10.8471 10.4141 10.6305 10.6307C10.4139 10.8472 10.2077 10.9814 9.91884 11.0936C9.70072 11.1784 9.37299 11.2792 8.76952 11.3068C8.11696 11.3366 7.92122 11.3428 6.26845 11.3428C4.61568 11.3428 4.41994 11.3366 3.76738 11.3068C3.16391 11.2792 2.83618 11.1784 2.61808 11.0936C2.32917 10.9814 2.12296 10.8472 1.90639 10.6307C1.68981 10.4141 1.55566 10.2079 1.4434 9.91899C1.35864 9.70086 1.25781 9.37313 1.23027 8.76969C1.20049 8.11701 1.1942 7.92127 1.1942 6.2686C1.1942 4.61593 1.20049 4.42018 1.23027 3.76753C1.25781 3.16406 1.35864 2.83633 1.4434 2.6182C1.55566 2.32932 1.68981 2.12311 1.90639 1.90653C2.12296 1.68996 2.32917 1.55581 2.61808 1.44353C2.83618 1.35879 3.16391 1.25796 3.76736 1.23041C4.42004 1.20064 4.61578 1.19435 6.26845 1.19435ZM6.26845 0.0791016C4.58748 0.0791016 4.37672 0.0862266 3.71655 0.116348C3.05772 0.146421 2.60781 0.251037 2.21409 0.404054C1.80708 0.56223 1.46191 0.773869 1.11781 1.11796C0.773722 1.46205 0.562083 1.80722 0.403907 2.21424C0.25089 2.60796 0.146275 3.05787 0.116202 3.71669C0.08608 4.37684 0.0789795 4.58762 0.0789795 6.2686C0.0789795 7.94957 0.08608 8.16035 0.116202 8.8205C0.146275 9.47932 0.25089 9.92923 0.403907 10.323C0.562083 10.7299 0.773722 11.0751 1.11781 11.4192C1.46191 11.7633 1.80708 11.975 2.21409 12.1331C2.60781 12.2862 3.05772 12.3908 3.71655 12.4208C4.37672 12.451 4.58748 12.4581 6.26845 12.4581C7.94942 12.4581 8.1602 12.451 8.82035 12.4208C9.47918 12.3908 9.92909 12.2862 10.3228 12.1331C10.7298 11.975 11.075 11.7633 11.4191 11.4192C11.7632 11.0751 11.9748 10.73 12.133 10.323C12.286 9.92923 12.3906 9.47932 12.4207 8.8205C12.4508 8.16035 12.4579 7.94957 12.4579 6.2686C12.4579 4.58762 12.4508 4.37684 12.4207 3.71669C12.3906 3.05787 12.286 2.60796 12.133 2.21424C11.9748 1.80722 11.7632 1.46205 11.4191 1.11796C11.075 0.773869 10.7298 0.56223 10.3228 0.404054C9.92909 0.251037 9.47918 0.146421 8.82035 0.116348C8.1602 0.0862266 7.94942 0.0791016 6.26845 0.0791016ZM6.26845 3.0902C4.51308 3.0902 3.09006 4.51323 3.09006 6.2686C3.09006 8.02397 4.51308 9.44699 6.26845 9.44699C8.02382 9.44699 9.44684 8.02397 9.44684 6.2686C9.44684 4.51323 8.02382 3.0902 6.26845 3.0902ZM6.26845 8.33177C5.129 8.33177 4.20528 7.40804 4.20528 6.2686C4.20528 5.12915 5.129 4.20542 6.26845 4.20542C7.4079 4.20542 8.33162 5.12915 8.33162 6.2686C8.33162 7.40804 7.4079 8.33177 6.26845 8.33177ZM10.3151 2.96463C10.3151 3.37484 9.98262 3.70738 9.57242 3.70738C9.16221 3.70738 8.82967 3.37484 8.82967 2.96463C8.82967 2.55442 9.16221 2.2219 9.57242 2.2219C9.98262 2.2219 10.3151 2.55442 10.3151 2.96463Z" fill="#223865"/>
</svg>
