<?xml version="1.0" encoding="UTF-8"?>
<svg xmlns="http://www.w3.org/2000/svg" xmlns:xlink="http://www.w3.org/1999/xlink" viewBox="0 0 15 15" width="15px" height="15px">
<g id="surface175992093">
<path style=" stroke:none;fill-rule:nonzero;fill:rgb(100%,100%,100%);fill-opacity:1;" d="M 4.5 12.5 L 2 12.5 L 2 5 L 4.5 5 Z M 3.25 4 C 2.558594 4 2 3.441406 2 2.75 C 2 2.058594 2.558594 1.5 3.25 1.5 C 3.941406 1.5 4.5 2.058594 4.5 2.75 C 4.5 3.441406 3.941406 4 3.25 4 Z M 13.5 12.5 L 11.097656 12.5 L 11.097656 8.851562 C 11.097656 7.980469 11.078125 6.859375 9.847656 6.859375 C 8.59375 6.859375 8.402344 7.808594 8.402344 8.785156 L 8.402344 12.5 L 6 12.5 L 6 4.996094 L 8.308594 4.996094 L 8.308594 6.019531 L 8.339844 6.019531 C 8.660156 5.429688 9.445312 4.808594 10.613281 4.808594 C 13.050781 4.808594 13.5 6.363281 13.5 8.382812 C 13.5 8.382812 13.5 12.5 13.5 12.5 Z M 13.5 12.5 "/>
</g>
</svg>
