<svg width="15" height="12" viewBox="0 0 15 12" fill="none" xmlns="http://www.w3.org/2000/svg">
<path d="M14.7742 1.90652C14.2546 2.13603 13.701 2.28815 13.1238 2.36202C13.7176 2.00501 14.1708 1.44399 14.3838 0.767781C13.8302 1.10017 13.2189 1.33495 12.5675 1.46597C12.0418 0.902319 11.2926 0.553223 10.4753 0.553223C8.88947 0.553223 7.61281 1.84936 7.61281 3.43832C7.61281 3.66695 7.63202 3.88679 7.67917 4.09607C5.29788 3.97912 3.19077 2.82982 1.77527 1.07907C1.52814 1.51082 1.38319 2.00501 1.38319 2.537C1.38319 3.53593 1.89403 4.42142 2.65548 4.93407C2.19529 4.92528 1.74383 4.79074 1.36136 4.57882C1.36136 4.58762 1.36136 4.59905 1.36136 4.61048C1.36136 6.01214 2.35422 7.17638 3.6562 7.44458C3.42305 7.50877 3.16894 7.53955 2.90523 7.53955C2.72185 7.53955 2.53672 7.529 2.36295 7.4903C2.73407 8.63256 3.78719 9.47233 5.0394 9.49959C4.06488 10.2672 2.82751 10.7298 1.48798 10.7298C1.25308 10.7298 1.02778 10.7192 0.80249 10.6902C2.07129 11.5141 3.57499 11.9846 5.19658 11.9846C10.4674 11.9846 13.3491 7.58791 13.3491 3.77687C13.3491 3.64936 13.3447 3.52626 13.3386 3.40403C13.907 2.99778 14.3847 2.4904 14.7742 1.90652Z" fill="white"/>
</svg>
